<?xml version="1.0" encoding="UTF-8"?>
<svg xmlns="http://www.w3.org/2000/svg" version="1.1" viewBox="0 0 609.4 297.6">
  <defs>
    <style>
      .cls-1, .cls-2 {
        fill: #e12f89;
      }

      .cls-1, .cls-3 {
        fill-rule: evenodd;
      }

      .cls-4 {
        isolation: isolate;
      }

      .cls-5 {
        fill: #010101;
      }

      .cls-3, .cls-6 {
        fill: #2aaa52;
      }
    </style>
  </defs>
  <!-- Generator: Adobe Illustrator 28.7.10, SVG Export Plug-In . SVG Version: 1.2.0 Build 236)  -->
  <g>
    <g id="Ebene_1">
      <g class="cls-4">
        <path class="cls-6" d="M294.8,137.4l37.2,37.2,18.5-9.3-16.3-16.3h16.4v-11.6l18.7,18.7,18.6-9.3v37.2l-18.6,9.3-18.7-18.7v27.9l-18.6,9.3-37.2-37.2v-37.2Z"/>
        <path class="cls-6" d="M429.8,174.6l18.6-9.3v37.2l-18.6,9.3-37.2-37.2v-37.2l37.2,37.2ZM420.6,137.4l18.6-9.3,6.9,7-18.5,9.3-7-7ZM485.6,184v-37.2l-18.6,9.3-14-14-18.8,9.3,14.1,13.9v9.3l18.7,18.7,18.6-9.3Z"/>
        <path class="cls-6" d="M490.3,137.4l37.2,37.2,18.7-9.3-13.9-14,37.1-18.5v37.2l-23.3,11.6v20.9l-18.6,9.3-37.2-37.2v-37.2ZM518.3,137.4l18.6-9.3,7,7.1-18.6,9.3-7-7.1Z"/>
      </g>
      <g class="cls-4">
        <path class="cls-5" d="M94.1,111.8v37.2l-55.8,27.9L1,139.7v-37.2l37.2,37.2,55.8-27.9ZM28.9,102.4l37.2-18.6v28l-18.5,9.2-18.7-18.7Z"/>
        <path class="cls-5" d="M136.1,139.7l18.6-9.3v37.2l-18.6,9.3-37.2-37.2v-37.2l37.2,37.2ZM133.8,109.4l18.6-9.3-16.3-16.3v24.6l-2.3,1ZM154.6,130.3v9.3l18.7,18.7,18.6-9.3v-37.2l-18.5,9.3-13.9-13.8-18.8,9.2,13.9,13.9Z"/>
        <path class="cls-5" d="M196.6,139.7v-37.2l37.2,37.2,55.8-27.9v37.2l-55.8,27.9-37.2-37.2ZM224.5,102.4l37.2-18.6v9.2l-30.2,16.5-7.1-7.1ZM238.5,116.4l37.2-18.6v6.9l-32.5,16.5-4.8-4.8Z"/>
        <path class="cls-5" d="M294.4,102.4l37.2,37.2,18.5-9.3-16.3-16.3h16.4v-11.6l18.7,18.7,18.6-9.3v37.2l-18.6,9.3-18.7-18.7v27.9l-18.6,9.3-37.2-37.2v-37.2Z"/>
      </g>
      <path class="cls-3" d="M153.4,203.3c-2.9-4.5-1.6-10.4,2.9-13.2,4.4-2.8,10.4-1.5,13.2,3,2.9,4.5,1.6,10.4-2.9,13.2-4.4,2.8-10.4,1.5-13.2-3Z"/>
      <path class="cls-3" d="M192.6,226.8c-3.2-5.1-1.8-11.7,3.2-14.9,5-3.2,11.7-1.7,14.9,3.4,3.2,5.1,1.8,11.7-3.2,14.9-5,3.2-11.7,1.7-14.9-3.4Z"/>
      <path class="cls-1" d="M214.5,278.3c-3.7-5.8-2-13.4,3.7-17.1s13.4-1.9,17,3.8c3.7,5.8,2,13.4-3.7,17.1-5.7,3.7-13.4,1.9-17.1-3.8Z"/>
      <path class="cls-3" d="M111.8,229.2c-3.2-5.1-1.8-11.7,3.2-14.9,5-3.2,11.7-1.7,14.9,3.4,3.2,5.1,1.8,11.7-3.2,14.9-5,3.2-11.7,1.7-14.9-3.4Z"/>
      <rect class="cls-5" x="130.5" y="207.8" width="21" height="6.9" transform="translate(-91.4 108.9) rotate(-32.5)"/>
      <rect class="cls-5" x="209.4" y="231.8" width="6.9" height="26" transform="translate(-76.8 98.7) rotate(-22.2)"/>
      <rect class="cls-5" x="178" y="199.5" width="6.9" height="21.2" transform="translate(-89.2 271.6) rotate(-62)"/>
      <path class="cls-3" d="M72.6,206.6c-2.9-4.5-1.6-10.4,2.9-13.2,4.4-2.8,10.4-1.5,13.2,3,2.9,4.5,1.6,10.4-2.9,13.2-4.4,2.8-10.4,1.5-13.2-3Z"/>
      <rect class="cls-5" x="97.2" y="202.7" width="6.9" height="21.2" transform="translate(-134.9 202.1) rotate(-62)"/>
      <path class="cls-3" d="M233.4,199.3c-2.9-4.5-1.6-10.4,2.9-13.2,4.4-2.8,10.4-1.5,13.2,3,2.9,4.5,1.6,10.4-2.9,13.2-4.4,2.8-10.4,1.5-13.2-3Z"/>
      <rect class="cls-5" x="210.4" y="203.8" width="21" height="6.9" transform="translate(-76.8 151.3) rotate(-32.5)"/>
      <g class="cls-4">
        <path class="cls-2" d="M38.5,139.7L1.2,102.4l55.8-27.9,9.3,9.3-37.1,18.6,18.7,18.7,37.1-18.7,9.3,9.4-55.8,27.9Z"/>
        <path class="cls-2" d="M99,102.4l18.7-9.4,16.3,16.3,18.4-9.2-16.2-16.2,18.7-9.4,37.2,37.2-18.7,9.4-14-14-18.5,9.1,14,14-18.7,9.4-37.2-37.2Z"/>
        <path class="cls-2" d="M196.8,102.4l55.8-27.9,9.3,9.4-37.2,18.6,7,7,37.2-18.7,6.9,7-37.2,18.6,4.7,4.7,37.2-18.7,9.2,9.3-55.8,27.9-37.2-37.2Z"/>
        <path class="cls-2" d="M331.9,139.7l-37.2-37.2,18.6-9.3h18.7v-9.2l18.6-9.3,37.2,37.2-18.7,9.4-18.6-18.6v11.5h-16.1l16.2,16.2-18.7,9.4Z"/>
      </g>
      <g class="cls-4">
        <path class="cls-5" d="M430.1,174.7l-37.2-37.2,55.8-27.9,37.2,37.2-18.5,9.3-27.9-28.1-18.6,9.3,7,7,18.5-9.3,7.1,7.1-18.6,9.2,14,14-18.7,9.4Z"/>
        <path class="cls-5" d="M490.6,137.4l18.6-9.3,16.3,16.4,18.6-9.3-7-7.1-18.6,9.3-9.4-9.3,37.2-18.5,23.3,23.3-37.3,18.6,14,13.9-18.6,9.4-37.3-37.3Z"/>
      </g>
      <path class="cls-3" d="M438.6,78.1c-2.6-5.3-.4-11.6,4.9-14.2,5.3-2.6,11.6-.4,14.2,4.9,2.6,5.3.4,11.6-4.9,14.2-5.3,2.6-11.6.4-14.2-4.9Z"/>
      <path class="cls-3" d="M479.8,107c-3.1-6.4-.5-14.1,5.9-17.2,6.4-3.1,14.1-.5,17.2,5.9,3.1,6.4.5,14.1-5.9,17.2-6.4,3.1-14.1.5-17.2-5.9Z"/>
      <path class="cls-3" d="M480.7,17.7c-1.9-3.8-.3-8.4,3.6-10.3s8.4-.3,10.3,3.6c1.9,3.8.3,8.4-3.5,10.3-3.8,1.9-8.5.3-10.3-3.6Z"/>
      <path class="cls-3" d="M514.4,38.9c-2-4.2-.3-9.2,3.9-11.2,4.2-2,9.2-.3,11.2,3.9,2,4.2.3,9.2-3.9,11.2-4.1,2-9.1.3-11.2-3.9Z"/>
      <path class="cls-3" d="M522.1,84.5c-2.7-5.5-.4-12.1,5.1-14.8,5.5-2.7,12.1-.4,14.8,5.1,2.7,5.5.4,12.1-5.1,14.8s-12.1.4-14.8-5.1Z"/>
      <path class="cls-3" d="M442.2,35.8c-2-4.1-.3-9.1,3.8-11.1,4.1-2,9.1-.3,11.1,3.8,2,4.1.3,9.1-3.8,11.1-4.1,2-9.1.3-11.1-3.8Z"/>
      <rect class="cls-5" x="460.8" y="20.1" width="18.4" height="6.9" transform="translate(37.2 208.4) rotate(-26)"/>
      <rect class="cls-5" x="502.5" y="84.8" width="18.4" height="6.9" transform="translate(13.1 233.2) rotate(-26)"/>
      <rect class="cls-5" x="438.2" y="48.2" width="18.4" height="6.9" transform="translate(367.1 494.7) rotate(-86.3)"/>
      <rect class="cls-5" x="524.8" y="45.3" width="6.9" height="21.6" transform="translate(-1.6 94.2) rotate(-10.2)"/>
      <rect class="cls-5" x="463.2" y="77.1" width="6.9" height="24.1" transform="translate(134.8 429.1) rotate(-56.5)"/>
      <rect class="cls-5" x="502.4" y="15.6" width="6.9" height="18.4" transform="translate(198.6 427.4) rotate(-55.5)"/>
      <g class="cls-4">
        <path class="cls-6" d="M307.3,232v25.9h-6.9v-16.5l-5.9,16.5h-7.6l-5.9-16.5v16.5h-6.8v-25.9h10.7l5.9,16.3,5.9-16.3h10.7Z"/>
        <path class="cls-6" d="M325.9,232l9.3,25.9h-7.3l-1.1-3h-9.6l-1.1,3h-7.3l9.3-25.9h7.7ZM319.7,248.1h4.7l-2.3-6.5-2.3,6.5Z"/>
        <path class="cls-6" d="M348,232c3,0,5.6,1.1,7.8,3.2,2.1,2.1,3.2,4.7,3.2,7.8s-1.1,5.6-3.2,7.8c-2.1,2.2-4.7,3.2-7.8,3.2h-4.3v4h-6.8v-25.9h11.2ZM348,247.1c1.1,0,2.1-.4,2.9-1.2.8-.8,1.2-1.8,1.2-2.9s-.4-2.1-1.2-2.9-1.8-1.2-2.9-1.2h-4.3v8.3h4.3Z"/>
      </g>
      <g class="cls-4">
        <path class="cls-5" d="M372.4,232c3,0,5.6,1.1,7.8,3.2,2.1,2.1,3.2,4.7,3.2,7.8s-1.1,5.6-3.2,7.8c-2.1,2.2-4.7,3.2-7.8,3.2h-4.3v4h-6.8v-25.9h11.2ZM372.4,247.1c1.1,0,2.1-.4,2.9-1.2.8-.8,1.2-1.8,1.2-2.9s-.4-2.1-1.2-2.9-1.8-1.2-2.9-1.2h-4.3v8.3h4.3Z"/>
        <path class="cls-5" d="M385.9,232h6.8v25.9h-6.8v-25.9Z"/>
        <path class="cls-5" d="M420.1,232v25.9h-10.6l-7.4-14.9v14.9h-6.8v-25.9h9l9,18.1v-18.1h6.9Z"/>
        <path class="cls-5" d="M449.2,242.6v2.4c0,3.7-1.3,6.8-3.9,9.4s-5.7,3.9-9.4,3.9-6.8-1.3-9.4-3.9-3.9-5.7-3.9-9.4,1.3-6.8,3.9-9.4,5.7-3.9,9.4-3.9,6.3,1.1,8.8,3.4l-4.9,4.9c-1.2-.9-2.5-1.4-4-1.4s-3.3.6-4.6,1.9c-1.3,1.3-1.9,2.8-1.9,4.6s.6,3.3,1.9,4.6c1.3,1.3,2.8,1.9,4.6,1.9s2.6-.4,3.7-1.2c1.1-.7,1.9-1.7,2.3-2.9h-5.5v-4.8h12.8Z"/>
      </g>
      <g class="cls-4">
        <path class="cls-2" d="M288.2,285.4c1.5,0,2.8-.5,4-1.4l4.9,4.9c-2.5,2.2-5.5,3.4-8.8,3.4s-6.8-1.3-9.4-3.9-3.9-5.7-3.9-9.4,1.3-6.8,3.9-9.4,5.7-3.9,9.4-3.9,6.3,1.1,8.8,3.4l-4.9,4.9c-1.2-.9-2.5-1.4-4-1.4s-3.3.6-4.6,1.9c-1.3,1.3-1.9,2.8-1.9,4.6s.6,3.3,1.9,4.6c1.3,1.3,2.8,1.9,4.6,1.9Z"/>
        <path class="cls-2" d="M321.3,266v25.9h-6.9v-9.6h-8v9.6h-6.9v-25.9h6.9v9.5h8v-9.5h6.9Z"/>
        <path class="cls-2" d="M339.8,266v6.8h-9.1v2.7h8.5v6.8h-8.5v2.7h9.1v6.8h-16v-25.9h16Z"/>
        <path class="cls-2" d="M375.5,266v25.9h-6.9v-16.5l-5.9,16.5h-7.6l-5.9-16.5v16.5h-6.8v-25.9h10.7l5.9,16.3,5.9-16.3h10.7Z"/>
      </g>
      <path class="cls-1" d="M582.1,109.7c-3.2-6.6-.5-14.5,6.1-17.7,6.6-3.2,14.5-.5,17.7,6.1,3.2,6.6.5,14.5-6.1,17.7-6.6,3.2-14.5.5-17.7-6.1Z"/>
      <rect class="cls-5" x="559.8" y="72.6" width="6.9" height="36.5" transform="translate(249.1 567.2) rotate(-65.8)"/>
      <g class="cls-4">
        <path class="cls-5" d="M378.5,266h6.8v25.9h-6.8v-25.9Z"/>
        <path class="cls-5" d="M401.2,285.4c1.5,0,2.8-.5,4-1.4l4.9,4.9c-2.5,2.2-5.5,3.4-8.8,3.4s-6.8-1.3-9.4-3.9-3.9-5.7-3.9-9.4,1.3-6.8,3.9-9.4,5.7-3.9,9.4-3.9,6.3,1.1,8.8,3.4l-4.9,4.9c-1.2-.9-2.5-1.4-4-1.4s-3.3.6-4.6,1.9c-1.3,1.3-1.9,2.8-1.9,4.6s.6,3.3,1.9,4.6c1.3,1.3,2.8,1.9,4.6,1.9Z"/>
        <path class="cls-5" d="M428.8,266l9.3,25.9h-7.3l-1.1-3h-9.6l-1.1,3h-7.3l9.3-25.9h7.7ZM422.6,282.1h4.7l-2.3-6.5-2.3,6.5Z"/>
        <path class="cls-5" d="M446.6,266v19.1h9.1v6.8h-16v-25.9h6.8Z"/>
        <path class="cls-5" d="M481.6,283.4c.2,2.7-.7,4.9-2.5,6.6-1.5,1.4-3.5,2.1-6,2.3-3.5,0-6.4-1.2-8.6-3.6l5-4.7c.6.6,1.4,1.1,2.3,1.3.5.1.9.2,1.2.2.7,0,1.2-.2,1.6-.5.2-.2.3-.6.3-1.1,0-.3-.1-.5-.3-.6-.5-.3-1.4-.6-2.6-.8l-3.3-1c-3-1.4-4.6-3.7-4.8-6.8-.1-2.3.6-4.3,2.1-6.1,1.5-1.7,3.4-2.7,5.7-2.8,1.1,0,2.2,0,3.5.3,2.2.5,4.1,1.6,5.6,3.3l-5,4.7c-1-1.1-2.2-1.5-3.6-1.5-.5,0-.8.2-1.1.5-.3.3-.4.7-.4,1.1,0,.7.9,1.2,2.5,1.5l3.3.9c3.3,1.3,5,3.6,5.2,6.8Z"/>
        <path class="cls-5" d="M495.3,266c3,0,5.6,1.1,7.8,3.2,2.1,2.1,3.2,4.7,3.2,7.8s-1.1,5.6-3.2,7.8c-2.1,2.2-4.7,3.2-7.8,3.2h-4.3v4h-6.8v-25.9h11.2ZM495.3,281.1c1.1,0,2.1-.4,2.9-1.2s1.2-1.8,1.2-2.9-.4-2.1-1.2-2.9c-.8-.8-1.8-1.2-2.9-1.2h-4.3v8.3h4.3Z"/>
        <path class="cls-5" d="M521.9,266l9.3,25.9h-7.3l-1.1-3h-9.6l-1.1,3h-7.3l9.3-25.9h7.7ZM515.7,282.1h4.7l-2.3-6.5-2.3,6.5Z"/>
        <path class="cls-5" d="M543.5,285.4c1.5,0,2.8-.5,4-1.4l4.9,4.9c-2.5,2.2-5.5,3.4-8.8,3.4s-6.8-1.3-9.4-3.9-3.9-5.7-3.9-9.4,1.3-6.8,3.9-9.4,5.7-3.9,9.4-3.9,6.3,1.1,8.8,3.4l-4.9,4.9c-1.2-.9-2.5-1.4-4-1.4s-3.3.6-4.6,1.9c-1.3,1.3-1.9,2.8-1.9,4.6s.6,3.3,1.9,4.6c1.3,1.3,2.8,1.9,4.6,1.9Z"/>
        <path class="cls-5" d="M570.8,266v6.8h-9.1v2.7h8.5v6.8h-8.5v2.7h9.1v6.8h-16v-25.9h16Z"/>
      </g>
    </g>
  </g>
</svg>